<?xml version="1.0" standalone="no"?>
<!DOCTYPE svg PUBLIC "-//W3C//DTD SVG 20010904//EN"
 "http://www.w3.org/TR/2001/REC-SVG-20010904/DTD/svg10.dtd">
<svg version="1.0" xmlns="http://www.w3.org/2000/svg"
 width="128.000000pt" height="128.000000pt" viewBox="0 0 128.000000 128.000000"
 preserveAspectRatio="xMidYMid meet">
<metadata>
Created by potrace 1.11, written by Peter Selinger 2001-2013
</metadata>
<g transform="translate(0.000000,128.000000) scale(0.100000,-0.100000)"
fill="#000000" stroke="none">
<path d="M875 987 c-23 -7 -59 -31 -87 -57 -63 -61 -80 -121 -79 -283 0 -182
13 -234 76 -300 83 -87 280 -88 369 -1 40 39 53 65 66 132 13 71 8 77 -63 77
l-62 0 -7 -50 c-10 -73 -48 -104 -122 -102 -65 3 -100 29 -116 86 -17 62 -13
278 7 318 31 65 109 91 173 58 35 -18 52 -46 59 -99 l6 -40 55 -1 c76 -2 81 0
74 43 -18 123 -64 187 -159 219 -41 13 -142 13 -190 0z"/>
<path d="M226 968 c-3 -13 -19 -81 -36 -153 -18 -71 -33 -134 -34 -140 -1 -5
-9 -37 -16 -70 -17 -74 -17 -74 -20 -77 -1 -2 -3 -12 -4 -23 -2 -11 -8 -38
-14 -60 -6 -22 -14 -54 -17 -72 -3 -18 -10 -44 -15 -58 l-10 -26 72 3 73 3 16
70 16 70 119 3 120 3 14 -63 c7 -35 14 -67 14 -73 1 -5 33 -11 73 -13 l71 -3
-9 38 c-5 21 -24 101 -43 178 -19 77 -38 156 -41 175 -3 19 -10 49 -15 65 -5
17 -17 62 -25 100 -9 39 -21 87 -26 108 l-10 37 -124 0 c-121 0 -125 -1 -129
-22z m176 -210 c20 -90 38 -170 40 -178 2 -12 -13 -16 -84 -18 -67 -2 -88 0
-88 10 0 7 9 50 20 95 11 45 21 92 24 105 8 42 26 123 31 136 11 31 23 1 57
-150z"/>
</g>
</svg>
